/* XPM */
static char*filesave[]={
"22 22 8 1",
"b c #808080",
"c c #000080",
"# c #000000",
"f c #004040",
"d c #008080",
"e c #585858",
"a c #dcdcdc",
". c #ffffff",
".....................#",
".aaaaaaaaaaaaaaaaaaab#",
".accccccccccccccccccb#",
".accccccccccccccccccb#",
".acc#############cccb#",
".acc#dddeeeeeddd#cccb#",
".acc#dddefffeddd#cccb#",
".acc#dddeeeeeddd#cccb#",
".acc#ddddddddddd#cccb#",
".acc#dddd###dddd#cccb#",
".acc#ddd#...#ddd#cccb#",
".acc#dd#.###.#dd#cccb#",
".acc#dd#.###.#dd#cccb#",
".acc#dd#.###.#dd#cccb#",
".acc#ddd#...#ddd#cccb#",
".acc#dddd###dddd#cccb#",
".acc#ddddddddddd#cccb#",
".acc#############cccb#",
".accccccccccccccccccb#",
".accccccccccccccccccb#",
".abbbbbbbbbbbbbbbbbbb#",
".#####################"};
