/* XPM */
static char*line[]={
"22 22 7 1",
"b c #808080",
"c c #000080",
"d c #ffc0c0",
"# c #000000",
"e c #ffff00",
"a c #dcdcdc",
". c #ffffff",
".....................#",
".aaaaaaaaaaaaaaaaaaab#",
".accccccccccccccccccb#",
".accdcccccccccccccccb#",
".acdddccccccccccccccb#",
".accdaacccccccccccccb#",
".accccaaccccccccccccb#",
".acccccaacccccccccccb#",
".accccccaaccccccccccb#",
".acccccccaacccccccccb#",
".accccccccaaccccccccb#",
".acccccccccaacccccccb#",
".accccccccccaaccccccb#",
".acccccccccccaacccccb#",
".accccccccccccaaccccb#",
".acccccccccccccaecccb#",
".accccccccccccceeeccb#",
".accccccccccccccecccb#",
".accccccccccccccccccb#",
".accccccccccccccccccb#",
".abbbbbbbbbbbbbbbbbbb#",
".#####################"};
