/* XPM */
static char*linkmap[]={
"22 22 10 1",
"c c #808080",
"e c #c3c3c3",
"d c #000080",
"h c #00ffff",
"# c #000000",
"b c #ffff00",
"f c #585858",
"a c #dcdcdc",
". c #ffffff",
"g c #ff0000",
".....................#",
".aaaaaaaaaaaaaaaaabac#",
".adddddddddddddddbbdc#",
".adeeeeeeeeeeeedbbbbb#",
".ade##########ebbbbbb#",
".ade##eee#eee#edbbbbb#",
".ade#eeee#eee#eddbbdb#",
".ade#effffffffffffbdb#",
".ade##f......ffffffdb#",
".ade#ef.ffff.ffffffdb#",
".ade#ef.ffff.......bb#",
".ade##f.gggf.fffff.bb#",
".addddf.gggf.ffhhh.dc#",
".addddf.gggf.ffhhh.dc#",
".addddf.ffff.ffhhh.dc#",
".addddf.ffff.......dc#",
".addddf......ffffffdc#",
".addddfffffffffffffdc#",
".addddfffffffffffffdc#",
".addddddddddddddddddc#",
".accccccccccccccccccc#",
".#####################"};
