/* XPM */
static char*newmap[]={
"22 22 7 1",
"b c #808080",
"d c #a0a0a0",
"c c #000080",
"# c #000000",
"e c #303030",
"a c #dcdcdc",
". c #ffffff",
".....................#",
".aaaaaaaaaaaaaaaaaaab#",
".accccccccccccccccccb#",
".accccccccccccccccccb#",
".accccccccccccccccccb#",
".accccccccccccccccccb#",
".accccccccccccccccccb#",
".accccbdddddddddddccb#",
".acccbedddddddddddccb#",
".accbeedddddddddddccb#",
".accbeedddddddddddccb#",
".accddddddddddddddccb#",
".accddddddddddddddccb#",
".accddddddddddddddccb#",
".accddddddddddddddccb#",
".accddddddddddddddccb#",
".accddddddddddddddccb#",
".accccccccccccccccccb#",
".accccccccccccccccccb#",
".accccccccccccccccccb#",
".abbbbbbbbbbbbbbbbbbb#",
".#####################"};
