/* XPM */
static char*fileprint[]={
"22 22 8 1",
"b c #808080",
"d c #a0a0a0",
"f c #c3c3c3",
"c c #000080",
"e c #00ff00",
"# c #000000",
"a c #dcdcdc",
". c #ffffff",
".....................#",
".aaaaaaaaaaaaaaaaaaab#",
".accccccccccccccccccb#",
".accc...........ccccb#",
".accc...........ccccb#",
".accc...........ccccb#",
".accc...........ccccb#",
".acaaaaaaaaaaaaaa#ccb#",
".acaddddddddddddd#ccb#",
".acaddddddddddddd#ccb#",
".acaddddddddeeedd#ccb#",
".acaddddddddeeedd#ccb#",
".acaddddddddddddd#ccb#",
".acbbbbbbbbbbbbbb#ccb#",
".accbdfffffffff#ccccb#",
".accbdddddddddd#ccccb#",
".accbdddddddddd#ccccb#",
".accbdddddddddd#ccccb#",
".accbdddddddddd#ccccb#",
".accccccccccccccccccb#",
".abbbbbbbbbbbbbbbbbbb#",
".#####################"};
