/* XPM */
static char*recticon[]={
"22 22 6 1",
"b c #808080",
"c c #000080",
"# c #000000",
"a c #dcdcdc",
". c #ffffff",
"d c #ff0000",
".....................#",
".aaaaaaaaaaaaaaaaaaab#",
".accccccccccccccccccb#",
".accccccccccccccccccb#",
".accccccccccccccccccb#",
".accdddddddddddddcccb#",
".accdcccccccccccdcccb#",
".accdcccccccccccdcccb#",
".accdcccccccccccdcccb#",
".accdcccccccccccdcccb#",
".accdcccccccccccdcccb#",
".accdcccccccccccdcccb#",
".accdcccccccccccdcccb#",
".accdcccccccccccdcccb#",
".accdcccccccccccdcccb#",
".accdcccccccccccdcccb#",
".accdddddddddddddcccb#",
".accccccccccccccccccb#",
".accccccccccccccccccb#",
".accccccccccccccccccb#",
".abbbbbbbbbbbbbbbbbbb#",
".#####################"};
