/* XPM */
static char*textlabel[]={
"22 22 7 1",
"b c #808080",
"c c #c3c3c3",
"d c #000080",
"# c #000000",
"e c #ffff00",
"a c #dcdcdc",
". c #ffffff",
".....................#",
".aaaaaaaaaaaaaaaaaaab#",
".accccccccccccccccccb#",
".accccccccccccccccccb#",
".accccccccccccccccccb#",
".ac################cb#",
".ac#dddddddddddddd#cb#",
".ac#dddddddddddddd#cb#",
".ac#ddddeedddedddd#cb#",
".ac#dddeddeddedddd#cb#",
".ac#ddeddddededddd#cb#",
".ac#ddeddddededddd#cb#",
".ac#ddeeeeeededddd#cb#",
".ac#ddeddddededddd#cb#",
".ac#ddeddddededddd#cb#",
".ac#ddeddddedeeeed#cb#",
".ac#dddddddddddddd#cb#",
".ac################cb#",
".accccccccccccccccccb#",
".accccccccccccccccccb#",
".abbbbbbbbbbbbbbbbbbb#",
".#####################"};
