/* XPM */
static char * active[] = {
"22 22 11 1",
" 	c None",
".	c #FFFFFF",
"+	c #000000",
"@	c #DCDCDC",
"#	c #808080",
"$	c #000080",
"%	c #FFDCA8",
"&	c #FFA858",
"*	c #C3C3C3",
"=	c #FF0000",
"-	c #00FF00",
".....................+",
".@@@@@@@@@@@@@@@@@@@#+",
".@$$$$$$$$$$$$$$$$$$#+",
".@$$%%%%%%&$$$$$$$$$#+",
".@$$%*#%%*&$$$+=.$$$#+",
".@$$%*#%%*&$$$$=.$$$#+",
".@$$%*#%%*&$$$+=.$$$#+",
".@$$%*****&$$$$=.$$$#+",
".@$$&&&&&&&$$$+=.$$$#+",
".@$...............$$#+",
".@$.+++++++++++++.$$#+",
".@$.+---+---+---+.$$#+",
".@$.+-+-+-+-+-+-+.$$#+",
".@$.+---+---+---+.$$#+",
".@$.+-+-+-+-+-+-+.$$#+",
".@$.+---+---+---+.$$#+",
".@$.+++++++++++++.$$#+",
".@$...............$$#+",
".@$$$@@@$$$$$$$$$$$$#+",
".@$$$$$$$$$$$$$$$$$$#+",
".@###################+",
".+++++++++++++++++++++"};
