/* XPM */
static char*background[]={
"22 22 12 1",
"b c #808080",
"c c #000080",
"f c #00ff00",
"i c #c05800",
"h c #00ffff",
"# c #000000",
"j c #ffc0ff",
"g c #ffff00",
"e c #0000ff",
"a c #dcdcdc",
". c #ffffff",
"d c #ff0000",
".....................#",
".aaaaaaaaaaaaaaaaaaab#",
".accccccccccccccccccb#",
".accccccccccccccccccb#",
".accccccccccccccccccb#",
".accc##############cb#",
".accc#dddeeefffggg#cb#",
".accc#dddeeefffggg#cb#",
".accc#dddeeefffggg#cb#",
".accc#hhhiiijjj...#cb#",
".accc#hhhiiijjj...#cb#",
".ac..............##cb#",
".ac.jjjjjjjjjjjj.cccb#",
".ac.jjjjjjjjjjjj.cccb#",
".ac.jjjjjjjjjjjj.cccb#",
".ac.jjjjjjjjjjjj.cccb#",
".ac.jjjjjjjjjjjj.cccb#",
".ac.jjjjjjjjjjjj.cccb#",
".ac..............cccb#",
".accccccccccccccccccb#",
".abbbbbbbbbbbbbbbbbbb#",
".#####################"};
