/* XPM */
static char*circle[]={
"22 22 7 1",
"b c #808080",
"c c #000080",
"e c #808000",
"d c #00ffff",
"# c #000000",
"a c #dcdcdc",
". c #ffffff",
".....................#",
".aaaaaaaaaaaaaaaaaaab#",
".accccccccccccccccccb#",
".accccccccccccccccccb#",
".accccccdddddeccccccb#",
".acccccdeeeccdecccccb#",
".accccdeccccccdeccccb#",
".acccdeccccccccdecccb#",
".accdeccccccccccdeccb#",
".accdeccccccccccdeccb#",
".accdeccccccccccdeccb#",
".accdeccccccccccdeccb#",
".accdeccccccccccdeccb#",
".acccdeccccccccdecccb#",
".accccdeccccccdeccccb#",
".acccccdeeeccdecccccb#",
".accccccdddddeccccccb#",
".accccccccccccccccccb#",
".accccccccccccccccccb#",
".accccccccccccccccccb#",
".abbbbbbbbbbbbbbbbbbb#",
".#####################"};
