/* XPM */
static char*fileopen[]={
"22 22 9 1",
"b c #808080",
"g c #a0a0a0",
"f c #c0c000",
"c c #000080",
"e c #808000",
"# c #000000",
"d c #585858",
"a c #dcdcdc",
". c #ffffff",
".....................#",
".aaaaaaaaaaaaaaaaaaab#",
".accccccccccccccccccb#",
".acdccccdcccccccccccb#",
".acddccdedccccccc.ccb#",
".acdfdcdeedccccc...cb#",
".acdffdeeeedccc.....b#",
".acdfffdeeeedcccc.ddb#",
".acdffffdeeeedccc.dcb#",
".acdfffffdeeeedcc.dcb#",
".acdfffffdeeedccc.dcb#",
".acdfffffdeeedccc.dcb#",
".acdfffffdeedcccc.dcb#",
".acdfffffdeedcccc.dcb#",
".accdffffdedccccc.dcb#",
".acccdfffdedcccc..dcb#",
".accccdffddc.....gccb#",
".acccccdfddcddddgcccb#",
".accccccddccccccccccb#",
".accccccccccccccccccb#",
".abbbbbbbbbbbbbbbbbbb#",
".#####################"};
