/* XPM */
static char*fonticon[]={
"22 22 8 1",
"b c #808080",
"c c #000080",
"f c #00ffff",
"# c #000000",
"e c #800000",
"a c #dcdcdc",
". c #ffffff",
"d c #ff0000",
".....................#",
".aaaaaaaaaaaaaaaaaaab#",
".accccccccccccccccccb#",
".accdddddeccccccccccb#",
".acccdeeecccdcccccccb#",
".accccdeccccdcccccccb#",
".acccccdecccdcccccccb#",
".acccccdecccdcccccccb#",
".accccdeccccdcccccccb#",
".acccdecccccdddddcccb#",
".accdddddeccccccccccb#",
".acceeeeeecffcccccccb#",
".accccccccfccfccccccb#",
".accccccccfccfccccccb#",
".accccccccfccfccccccb#",
".acccccccfcffcfcccccb#",
".acccccccfccccfcccccb#",
".acccccccfccccfcccccb#",
".accccccccccccccccccb#",
".accccccccccccccccccb#",
".abbbbbbbbbbbbbbbbbbb#",
".#####################"};
