/* XPM */
static char*foreground[]={
"22 22 16 1",
"b c #808080",
"f c #008000",
"i c #c3c3c3",
"j c #ff00ff",
"c c #000080",
"k c #c05800",
"m c #800080",
"d c #00ffff",
"# c #000000",
"n c #800000",
"e c #0000ff",
"g c #008080",
"h c #00c000",
"a c #dcdcdc",
". c #ffffff",
"l c #ff0000",
".....................#",
".aaaaaaaaaaaaaaaaaaab#",
".accccccccccccccccccb#",
".accccccccccccccccccb#",
".accccccccccccccccccb#",
".accccccccccccccccccb#",
".acc##############ccb#",
".acc#............#ccb#",
".acc#............#ccb#",
".acc#............#ccb#",
".acc##############ccb#",
".acc#dddeeefff...#ccb#",
".acc#dgdeeefhf.i.#ccb#",
".acc#dddeeefff...#ccb#",
".acc#jjjkkkdddlll#ccb#",
".acc#jmjkikdgdlnl#ccb#",
".acc#jjjkkkdddlll#ccb#",
".acc##############ccb#",
".accccccccccccccccccb#",
".accccccccccccccccccb#",
".abbbbbbbbbbbbbbbbbbb#",
".#####################"};
