/* XPM */
static char*iconicon[]={
"22 22 9 1",
"b c #808080",
"e c #ffa858",
"c c #000080",
"g c #00ff00",
"f c #c05800",
"d c #00ffff",
"# c #000000",
"a c #dcdcdc",
". c #ffffff",
".....................#",
".aaaaaaaaaaaaaaaaaaab#",
".accccccccccccccccccb#",
".accddddddddddddddccb#",
".accddddddddddddddccb#",
".accddddddddddddddccb#",
".accdddddefdddddddccb#",
".accdddddeffddddddccb#",
".accddddeefffdddddccb#",
".accdddeeefffffdddccb#",
".accdeeeeefffffffdccb#",
".accggggggggggggggccb#",
".accggggggggggggggccb#",
".accggggggggggggggccb#",
".accggggggggggggggccb#",
".accggggggggggggggccb#",
".accggggggggggggggccb#",
".accccccccccccccccccb#",
".accccccccccccccccccb#",
".accccccccccccccccccb#",
".abbbbbbbbbbbbbbbbbbb#",
".#####################"};
