/* XPM */
static char*linestyle[]={
"22 22 8 1",
"b c #808080",
"c c #000080",
"e c #00ff00",
"# c #000000",
"f c #ffff00",
"a c #dcdcdc",
". c #ffffff",
"d c #ff0000",
".....................#",
".aaaaaaaaaaaaaaaaaaab#",
".accccccccccccccccccb#",
".accccccccccccccccccb#",
".accddddddddddddddccb#",
".accccccccccccccccccb#",
".accceeecceeecceeeccb#",
".accceeecceeecceeeccb#",
".accccccccccccccccccb#",
".accccccccccccccccccb#",
".accffffffffffffffccb#",
".accffffffffffffffccb#",
".accffffffffffffffccb#",
".accccccccccccccccccb#",
".accccccccccccccccccb#",
".accccccccccccccccccb#",
".accccccccccccccccccb#",
".accccccccccccccccccb#",
".accccccccccccccccccb#",
".accccccccccccccccccb#",
".abbbbbbbbbbbbbbbbbbb#",
".#####################"};
