/* XPM */
static char * breaker_invalid00_xpm[] = {
"71 63 15 1",
" 	c None",
".	c #000000",
"+	c #313116",
"@	c #63642D",
"#	c #C5C75A",
"$	c #D2D460",
"%	c #DDDF65",
"&	c #F6F871",
"*	c #6E6F32",
"=	c #939443",
"-	c #494921",
";	c #0B0B05",
">	c #61622C",
",	c #18180B",
"'	c #303016",
"                                                                       ",
"                                                                       ",
"                                                                       ",
"                              .....                                    ",
"                            .+@###@+.                                  ",
"                           .+$%&&&%$+.                                 ",
"                          .+$&&&&&&&$+.                                ",
"                         ..*&&&&&&&&&*..                               ",
"                         ..%&&&&&&&&&%..                               ",
"                         ..&&&&&&&&&&&..                               ",
"                         ..&&&&&&&&&&&..                               ",
"                         ..=&&&&&&&&&=..                               ",
"                          .-&&&&&&&&&-.                                ",
"                           ;>&&&&&&&>;                                 ",
"                            ;>=&&&=>;                                  ",
"                              ,''',                    .               ",
"                                                      ...              ",
"                                                      ...              ",
"                                                     ....              ",
"                                                    ....               ",
"                                                   ....                ",
"                                                  ....                 ",
"                                                 ....                  ",
"                                                ....                   ",
"                                               ....                    ",
"                                              ....                     ",
"                                             ....                      ",
"                                            ....                       ",
"                                           ....                        ",
"                                          ....                         ",
"                                         ....                          ",
"                                        ....                           ",
"                                       ....                            ",
"                                      ....                             ",
"                                     ....                              ",
"                                    ....                               ",
"                                   ....                                ",
"                                  ....                                 ",
"                                 ....                                  ",
"                                ....                                   ",
"                               ....                                    ",
"                              .....                                    ",
"                            .+@###@+.                                  ",
"                           .+$%&&&%$+.                                 ",
"                          .+$&&&&&&&$+.                                ",
"                         ..*&&&&&&&&&*..                               ",
"                         ..%&&&&&&&&&%..                               ",
"                         ..&&&&&&&&&&&..                               ",
"                         ..&&&&&&&&&&&..                               ",
"                         ..=&&&&&&&&&=..                               ",
"                          .-&&&&&&&&&-.                                ",
"                           ;>&&&&&&&>;                                 ",
"                            ;>=&&&=>;                                  ",
"                              ,''',                                    ",
"                                                                       ",
"                                                                       ",
"                                                                       ",
"                                                                       ",
"                                                                       ",
"                                                                       ",
"                                                                       ",
"                                                                       ",
"                                                                       "};
