/* XPM */
static char * breaker_invalid11_xpm[] = {
"71 63 29 1",
" 	c None",
".	c #000000",
"+	c #3D3E1C",
"@	c #7B7C38",
"#	c #F6F871",
"$	c #0A0A04",
"%	c #3B3C1B",
"&	c #787937",
"*	c #C5C75A",
"=	c #B0B151",
"-	c #585928",
";	c #262611",
">	c #525326",
",	c #D3D461",
"'	c #E0E267",
")	c #F3F56F",
"!	c #DCDE65",
"~	c #D6D762",
"{	c #F2F46F",
"]	c #16160A",
"^	c #888A3E",
"/	c #2D2D14",
"(	c #303016",
"_	c #1B1B0C",
":	c #A8AA4D",
"<	c #0D0D06",
"[	c #6C6C31",
"}	c #81823B",
"|	c #17170A",
"                                                                       ",
"                                                                       ",
"                                                                       ",
"                              .....                                    ",
"                            .+@###@+.                                  ",
"                           .+#######+.                                 ",
"                          .+#########+.                                ",
"                         ..@#########@..                               ",
"                         ..###########..                               ",
"                         ..###########..                               ",
"                         ..###########..                               ",
"                         ..@#########@..                               ",
"                          .+#########+.                                ",
"                           .+#######+.                                 ",
"                            .+@###@+.                                  ",
"                              .....                                    ",
"                               ...                                     ",
"                               ...                                     ",
"                               ...                                     ",
"                               ...                                     ",
"                               ...                                     ",
"                               ...                                     ",
"                               ...                                     ",
"                               ...                                     ",
"                               ...                                     ",
"                               ...                                     ",
"                               ...                                     ",
"                               ...                                     ",
"                               ...                                     ",
"                               ...                                     ",
"                               ...                                     ",
"                               ...                                     ",
"                               ...                                     ",
"                               ...                                     ",
"                               ...                                     ",
"                               ...                                     ",
"                               ...                                     ",
"                               ...                                     ",
"                               ...                                     ",
"                               ...                                     ",
"                               ...                                     ",
"                              .....                                    ",
"                            $%&**=-;.                                  ",
"                           $>,'##)!=;.                                 ",
"                          $>~######{=;.                                ",
"                         .]^########!-..                               ",
"                         ./'########)=..                               ",
"                         .(##########*..                               ",
"                         .(##########*..                               ",
"                         ._:########'&..                               ",
"                          <[########,%.                                ",
"                           _}######~>$                                 ",
"                            _[:##'^>$                                  ",
"                              _((/|                                    ",
"                                                                       ",
"                                                                       ",
"                                                                       ",
"                                                                       ",
"                                                                       ",
"                                                                       ",
"                                                                       ",
"                                                                       ",
"                                                                       "};
